<svg width="512" height="512" viewBox="0 0 512 512" fill="none" xmlns="http://www.w3.org/2000/svg" role="img" aria-label="MC monograma">
  <rect width="512" height="512" rx="96" fill="#0B0B0B"/>
  <path d="M60 177H126L178 259L230 177H296V335H230V262L186 330H170L126 262V335H60V177Z" fill="#FFFFFF"/>
  <path fill-rule="evenodd" clip-rule="evenodd"
    d="M316 177H438C458.987 177 476 194.013 476 215V297C476 317.987 458.987 335 438 335H316C295.013 335 278 317.987 278 297V215C278 194.013 295.013 177 316 177ZM344 214C331.85 214 322 223.85 322 236V276C322 288.15 331.85 298 344 298H394V274H366V238H438V214H344Z"
    fill="#35D4AE"/>
</svg>
